<svg width="16" height="13" viewBox="0 0 16 13" fill="none" xmlns="http://www.w3.org/2000/svg">
<path fill-rule="evenodd" clip-rule="evenodd" d="M15.969 12.5011C15.969 12.7771 15.745 13.0011 15.47 13.0011H0.499023C0.223023 13.0011 0 12.7771 0 12.5011V0.501068C0 0.498068 0.00201416 0.495058 0.00201416 0.491058C0.00201416 0.484058 0.00598145 0.479015 0.00598145 0.472015C0.0119814 0.356015 0.0579814 0.252013 0.130981 0.170013C0.138981 0.161013 0.134982 0.147031 0.143982 0.138031C0.154982 0.127031 0.172021 0.131063 0.184021 0.121063C0.258021 0.0580632 0.350003 0.0189792 0.453003 0.00997925C0.473003 0.00797925 0.487019 -3.05176e-05 0.507019 -3.05176e-05H15.464C15.484 -3.05176e-05 15.498 0.00797925 15.517 0.00997925C15.621 0.0199792 15.711 0.0590632 15.787 0.121063C15.799 0.131063 15.816 0.127031 15.827 0.138031C15.836 0.147031 15.832 0.161013 15.84 0.170013C15.913 0.252013 15.958 0.356015 15.965 0.472015C15.965 0.479015 15.969 0.484058 15.969 0.491058C15.969 0.494058 15.9709 0.497068 15.9709 0.501068V12.5011H15.969ZM0.997986 11.5011C0.997986 11.7771 1.22101 12.0011 1.49701 12.0011H14.472C14.747 12.0011 14.9709 11.7771 14.9709 11.5011V1.51901L8.35303 6.827C8.34603 6.834 8.35004 6.846 8.34204 6.853C8.24304 6.952 8.11299 6.99601 7.98499 6.99301C7.85499 6.99501 7.72505 6.952 7.62805 6.853C7.62005 6.846 7.62397 6.834 7.61597 6.827L0.999023 1.51901V11.5011H0.997986ZM7.98401 5.87106L14.0551 1.00107H1.91101L7.98401 5.87106Z" fill="white"/>
</svg>
